<svg
	xmlns:dc="http://purl.org/dc/elements/1.1/"
	xmlns:cc="http://creativecommons.org/ns#"
	xmlns:rdf="http://www.w3.org/1999/02/22-rdf-syntax-ns#"
	xmlns:svg="http://www.w3.org/2000/svg"
	xmlns="http://www.w3.org/2000/svg"
	xmlns:sodipodi="http://sodipodi.sourceforge.net/DTD/sodipodi-0.dtd"
	xmlns:inkscape="http://www.inkscape.org/namespaces/inkscape"
	version="1.1"
	id="Layer_1"
	x="0px"
	y="0px"
	width="32.000004"
	height="32.000004"
	viewBox="0 0 32.000004 32.000004"
	enable-background="new 0 0 857.826 857.92"
	xml:space="preserve"
	sodipodi:docname="Orbis (1).svg"
	inkscape:version="0.92.3 (2405546, 2018-03-11)"><metadata
   id="metadata32"><rdf:RDF><cc:Work
       rdf:about=""><dc:format>image/svg+xml</dc:format><dc:type
	rdf:resource="http://purl.org/dc/dcmitype/StillImage" /><dc:title></dc:title></cc:Work></rdf:RDF></metadata><defs
	id="defs30"><filter
     inkscape:label="Black Light"
     inkscape:menu="Color"
     inkscape:menu-tooltip="Light areas turn to black"
     style="color-interpolation-filters:sRGB"
     id="filter3745"><feColorMatrix
       type="luminanceToAlpha"
       result="result2"
       id="feColorMatrix3737" /><feComposite
	in2="SourceGraphic"
	operator="arithmetic"
	in="result2"
	k3="2"
	result="result4"
	id="feComposite3739"
	k1="0"
	k2="0"
	k4="0" /><feBlend
	in="result4"
	mode="multiply"
	result="result3"
	in2="result2"
	id="feBlend3741" /><feComposite
	in2="SourceGraphic"
	operator="in"
	in="result3"
	id="feComposite3743" /></filter></defs><sodipodi:namedview
	pagecolor="#ffffff"
	bordercolor="#666666"
	borderopacity="1"
	objecttolerance="10"
	gridtolerance="10"
	guidetolerance="10"
	inkscape:pageopacity="0"
	inkscape:pageshadow="2"
	inkscape:window-width="2560"
	inkscape:window-height="1377"
	id="namedview28"
	showgrid="false"
	inkscape:zoom="0.27508393"
	inkscape:cx="-603.89489"
	inkscape:cy="16.037056"
	inkscape:window-x="1912"
	inkscape:window-y="-8"
	inkscape:window-maximized="1"
	inkscape:current-layer="Layer_1"
	fit-margin-top="0"
	fit-margin-left="0"
	fit-margin-right="0"
	fit-margin-bottom="0" />
	<path
		d="M 31.2,10.4 H 28 V 7.2 C 28,6.76 27.64,6.4 27.2,6.4 h -1.6 c -0.44,0 -0.8,0.36 -0.8,0.8 v 3.2 h -3.2 c -0.44,0 -0.8,0.36 -0.8,0.8 v 1.6 c 0,0.44 0.36,0.8 0.8,0.8 h 3.2 v 3.2 c 0,0.44 0.36,0.8 0.8,0.8 h 1.6 c 0.44,0 0.8,-0.36 0.8,-0.8 v -3.2 h 3.2 c 0.44,0 0.8,-0.36 0.8,-0.8 v -1.6 c 0,-0.44 -0.36,-0.8 -0.8,-0.8 z m -20,2.4 c 3.535,0 6.4,-2.865 6.4,-6.4 C 17.6,2.865 14.735,0 11.2,0 7.665,0 4.8,2.865 4.8,6.4 c 0,3.535 2.865,6.4 6.4,6.4 z m 4.48,1.6 H 14.845 C 13.735,14.91 12.5,15.2 11.2,15.2 9.9,15.2 8.67,14.91 7.555,14.4 H 6.72 C 3.01,14.4 0,17.41 0,21.12 v 2.08 c 0,1.325 1.075,2.4 2.4,2.4 H 20 c 1.325,0 2.4,-1.075 2.4,-2.4 v -2.08 c 0,-3.71 -3.01,-6.72 -6.72,-6.72 z"
	/>
</svg>
