<?xml version="1.0" encoding="UTF-8" standalone="no"?>
<!-- Generator: Adobe Illustrator 16.0.0, SVG Export Plug-In . SVG Version: 6.00 Build 0)  -->

<svg
   xmlns:dc="http://purl.org/dc/elements/1.1/"
   xmlns:cc="http://creativecommons.org/ns#"
   xmlns:rdf="http://www.w3.org/1999/02/22-rdf-syntax-ns#"
   xmlns:svg="http://www.w3.org/2000/svg"
   xmlns="http://www.w3.org/2000/svg"
   xmlns:sodipodi="http://sodipodi.sourceforge.net/DTD/sodipodi-0.dtd"
   xmlns:inkscape="http://www.inkscape.org/namespaces/inkscape"
   version="1.1"
   id="Layer_1"
   x="0px"
   y="0px"
   width="32.000004"
   height="32.000004"
   viewBox="0 0 32.000004 32.000004"
   enable-background="new 0 0 857.826 857.92"
   xml:space="preserve"
   sodipodi:docname="Orbis (1).svg"
   inkscape:version="0.92.3 (2405546, 2018-03-11)"><metadata
   id="metadata32"><rdf:RDF><cc:Work
       rdf:about=""><dc:format>image/svg+xml</dc:format><dc:type
         rdf:resource="http://purl.org/dc/dcmitype/StillImage" /><dc:title></dc:title></cc:Work></rdf:RDF></metadata><defs
   id="defs30"><filter
     inkscape:label="Black Light"
     inkscape:menu="Color"
     inkscape:menu-tooltip="Light areas turn to black"
     style="color-interpolation-filters:sRGB"
     id="filter3745"><feColorMatrix
       type="luminanceToAlpha"
       result="result2"
       id="feColorMatrix3737" /><feComposite
       in2="SourceGraphic"
       operator="arithmetic"
       in="result2"
       k3="2"
       result="result4"
       id="feComposite3739"
       k1="0"
       k2="0"
       k4="0" /><feBlend
       in="result4"
       mode="multiply"
       result="result3"
       in2="result2"
       id="feBlend3741" /><feComposite
       in2="SourceGraphic"
       operator="in"
       in="result3"
       id="feComposite3743" /></filter></defs><sodipodi:namedview
   pagecolor="#ffffff"
   bordercolor="#666666"
   borderopacity="1"
   objecttolerance="10"
   gridtolerance="10"
   guidetolerance="10"
   inkscape:pageopacity="0"
   inkscape:pageshadow="2"
   inkscape:window-width="2560"
   inkscape:window-height="1377"
   id="namedview28"
   showgrid="false"
   inkscape:zoom="0.27508393"
   inkscape:cx="-603.89489"
   inkscape:cy="16.037056"
   inkscape:window-x="1912"
   inkscape:window-y="-8"
   inkscape:window-maximized="1"
   inkscape:current-layer="Layer_1"
   fit-margin-top="0"
   fit-margin-left="0"
   fit-margin-right="0"
   fit-margin-bottom="0" />
<g
   id="Layer_2"
   style="filter:url(#filter3745)"
   transform="matrix(0.03108025,0,0,0.03108025,2.6666668,2.6666668)">
	<g
   id="g4">
		<path
   d="m 428.997,319 c 60.75,0 109.997,49.248 109.997,109.997 0,60.75 -49.247,109.997 -109.997,109.997 C 368.247,538.994 319,489.747 319,428.997 319,368.248 368.248,319 428.997,319 m 0,-20 c -34.724,0 -67.369,13.522 -91.922,38.075 C 312.522,361.628 299,394.273 299,428.997 c 0,34.724 13.522,67.369 38.075,91.922 24.553,24.554 57.198,38.075 91.922,38.075 34.724,0 67.369,-13.521 91.922,-38.075 24.554,-24.553 38.075,-57.198 38.075,-91.922 0,-34.724 -13.521,-67.369 -38.075,-91.922 C 496.366,312.522 463.721,299 428.997,299 Z"
   id="path2"
   inkscape:connector-curvature="0"
   style="fill:#ffffff" />
	</g>
	<g
   id="g8">
		<path
   d="m 428.997,235 c 107.142,0 193.997,86.855 193.997,193.997 0,107.142 -86.855,193.997 -193.997,193.997 C 321.855,622.994 235,536.139 235,428.997 235,321.855 321.855,235 428.997,235 m 0,-20 c -28.881,0 -56.908,5.661 -83.304,16.825 -25.485,10.779 -48.368,26.207 -68.016,45.853 -19.646,19.647 -35.074,42.53 -45.853,68.015 C 220.661,372.089 215,400.116 215,428.997 c 0,28.881 5.661,56.908 16.825,83.304 10.779,25.484 26.207,48.368 45.853,68.016 19.647,19.646 42.53,35.073 68.015,45.854 26.396,11.164 54.423,16.825 83.304,16.825 28.881,0 56.908,-5.661 83.304,-16.825 25.484,-10.779 48.368,-26.206 68.016,-45.854 19.646,-19.646 35.073,-42.53 45.854,-68.016 11.164,-26.396 16.825,-54.423 16.825,-83.304 0,-28.881 -5.661,-56.908 -16.825,-83.304 -10.779,-25.485 -26.206,-48.368 -45.854,-68.015 -19.646,-19.646 -42.53,-35.074 -68.016,-45.853 C 485.905,220.661 457.878,215 428.997,215 Z"
   id="path6"
   inkscape:connector-curvature="0"
   style="fill:#ffffff" />
	</g>
	<g
   id="g12">
		<path
   d="m 428.997,63 c 202.135,0 365.997,163.862 365.997,365.997 0,202.135 -163.862,365.997 -365.997,365.997 C 226.862,794.994 63,631.132 63,428.997 63,226.862 226.862,63 428.997,63 m 0,-20 C 376.896,43 326.344,53.208 278.743,73.342 232.777,92.784 191.499,120.613 156.056,156.056 120.613,191.499 92.784,232.777 73.342,278.743 53.208,326.344 43,376.896 43,428.997 c 0,52.101 10.208,102.653 30.342,150.254 19.442,45.967 47.271,87.244 82.714,122.688 35.443,35.442 76.721,63.271 122.687,82.715 47.601,20.133 98.153,30.342 150.254,30.342 52.101,0 102.653,-10.209 150.254,-30.342 45.967,-19.442 87.244,-47.271 122.688,-82.715 35.441,-35.442 63.271,-76.721 82.714,-122.688 20.133,-47.601 30.342,-98.153 30.342,-150.254 0,-52.101 -10.209,-102.653 -30.342,-150.254 C 765.211,232.777 737.382,191.499 701.939,156.056 666.496,120.613 625.217,92.784 579.251,73.342 531.65,53.208 481.098,43 428.997,43 Z"
   id="path10"
   inkscape:connector-curvature="0"
   style="fill:#ffffff" />
	</g>
	<g
   id="g16">
		<path
   d="m 428.997,63 c 202.135,0 365.997,163.862 365.997,365.997 0,202.135 -163.862,365.997 -365.997,365.997 C 226.862,794.994 63,631.132 63,428.997 63,226.862 226.862,63 428.997,63 m 0,-20 C 376.896,43 326.344,53.208 278.743,73.342 232.777,92.784 191.499,120.613 156.056,156.056 120.613,191.499 92.784,232.777 73.342,278.743 53.208,326.344 43,376.896 43,428.997 c 0,52.101 10.208,102.653 30.342,150.254 19.442,45.967 47.271,87.244 82.714,122.688 35.443,35.442 76.721,63.271 122.687,82.715 47.601,20.133 98.153,30.342 150.254,30.342 52.101,0 102.653,-10.209 150.254,-30.342 45.967,-19.442 87.244,-47.271 122.688,-82.715 35.441,-35.442 63.271,-76.721 82.714,-122.688 20.133,-47.601 30.342,-98.153 30.342,-150.254 0,-52.101 -10.209,-102.653 -30.342,-150.254 C 765.211,232.777 737.382,191.499 701.939,156.056 666.496,120.613 625.217,92.784 579.251,73.342 531.65,53.208 481.098,43 428.997,43 Z"
   id="path14"
   inkscape:connector-curvature="0"
   style="fill:#ffffff" />
	</g>
	<path
   d="M 428.997,20 C 654.88,20 837.994,203.114 837.994,428.997 837.994,654.88 654.88,837.994 428.997,837.994 203.114,837.994 20,654.88 20,428.997 20,203.114 203.114,20 428.997,20 m 0,-20 C 371.092,0 314.908,11.345 262.006,33.721 210.919,55.329 165.043,86.259 125.651,125.651 86.259,165.043 55.33,210.92 33.721,262.006 11.345,314.908 0,371.092 0,428.997 c 0,57.905 11.345,114.089 33.721,166.991 21.608,51.087 52.538,96.964 91.93,136.354 39.392,39.392 85.269,70.321 136.355,91.931 52.902,22.375 109.086,33.721 166.991,33.721 57.905,0 114.089,-11.346 166.991,-33.721 51.087,-21.608 96.964,-52.538 136.354,-91.931 39.392,-39.392 70.321,-85.269 91.931,-136.354 22.375,-52.902 33.721,-109.086 33.721,-166.991 0,-57.905 -11.346,-114.089 -33.721,-166.991 C 802.665,210.919 771.735,165.043 732.342,125.651 692.95,86.259 647.073,55.33 595.988,33.721 543.086,11.345 486.902,0 428.997,0 Z"
   id="path18"
   inkscape:connector-curvature="0"
   style="fill:#ffffff" />
	<path
   d="M 155.338,679.124 328.592,488.911 312.966,475.19 142.061,665.586 Z m 31.01,31.714 L 388.754,541.74 372.336,527.323 173.572,697.756 Z"
   id="path20"
   inkscape:connector-curvature="0"
   style="fill:#ffffff" />
	<path
   d="M 702.656,178.87 529.402,369.083 545.027,382.804 715.932,192.408 Z M 671.646,147.156 469.24,316.254 485.658,330.671 684.422,160.238 Z"
   id="path22"
   inkscape:connector-curvature="0"
   style="fill:#ffffff" />
	
		<rect
   x="387.09299"
   y="420.77499"
   transform="matrix(-0.7071,-0.7071,0.7071,-0.7071,429.3353,1036.2472)"
   width="84.378998"
   height="16.858999"
   id="rect24"
   style="fill:#ffffff" />
</g>
</svg>