<?xml version="1.0" encoding="UTF-8" standalone="no"?>
<!-- Generator: Adobe Illustrator 16.0.0, SVG Export Plug-In . SVG Version: 6.00 Build 0)  -->

<svg
   xmlns:dc="http://purl.org/dc/elements/1.1/"
   xmlns:cc="http://creativecommons.org/ns#"
   xmlns:rdf="http://www.w3.org/1999/02/22-rdf-syntax-ns#"
   xmlns:svg="http://www.w3.org/2000/svg"
   xmlns="http://www.w3.org/2000/svg"
   xmlns:sodipodi="http://sodipodi.sourceforge.net/DTD/sodipodi-0.dtd"
   xmlns:inkscape="http://www.inkscape.org/namespaces/inkscape"
   version="1.1"
   id="Layer_1"
   x="0px"
   y="0px"
   width="857.826px"
   height="857.92px"
   viewBox="0 0 857.826 857.92"
   enable-background="new 0 0 857.826 857.92"
   xml:space="preserve"
   sodipodi:docname="orbis.svg"
   inkscape:version="0.92.3 (2405546, 2018-03-11)"><metadata
   id="metadata32"><rdf:RDF><cc:Work
       rdf:about=""><dc:format>image/svg+xml</dc:format><dc:type
         rdf:resource="http://purl.org/dc/dcmitype/StillImage" /></cc:Work></rdf:RDF></metadata><defs
   id="defs30"><filter
     inkscape:label="Black Light"
     inkscape:menu="Color"
     inkscape:menu-tooltip="Light areas turn to black"
     style="color-interpolation-filters:sRGB;"
     id="filter3745"><feColorMatrix
       type="luminanceToAlpha"
       result="result2"
       id="feColorMatrix3737" /><feComposite
       in2="SourceGraphic"
       operator="arithmetic"
       in="result2"
       k3="2"
       result="result4"
       id="feComposite3739" /><feBlend
       in="result4"
       mode="multiply"
       result="result3"
       in2="result2"
       id="feBlend3741" /><feComposite
       in2="SourceGraphic"
       operator="in"
       in="result3"
       id="feComposite3743" /></filter></defs><sodipodi:namedview
   pagecolor="#ffffff"
   bordercolor="#666666"
   borderopacity="1"
   objecttolerance="10"
   gridtolerance="10"
   guidetolerance="10"
   inkscape:pageopacity="0"
   inkscape:pageshadow="2"
   inkscape:window-width="1920"
   inkscape:window-height="1017"
   id="namedview28"
   showgrid="false"
   inkscape:zoom="0.27508393"
   inkscape:cx="428.91299"
   inkscape:cy="428.95999"
   inkscape:window-x="-8"
   inkscape:window-y="336"
   inkscape:window-maximized="1"
   inkscape:current-layer="Layer_1" />
<g
   id="Layer_2"
   style="filter:url(#filter3745)">
	<g
   id="g4">
		<path
   fill="#FFFFFF"
   d="M428.997,319c60.75,0,109.997,49.248,109.997,109.997c0,60.75-49.247,109.997-109.997,109.997    S319,489.747,319,428.997C319,368.248,368.248,319,428.997,319 M428.997,299c-34.724,0-67.369,13.522-91.922,38.075    C312.522,361.628,299,394.273,299,428.997c0,34.724,13.522,67.369,38.075,91.922c24.553,24.554,57.198,38.075,91.922,38.075    s67.369-13.521,91.922-38.075c24.554-24.553,38.075-57.198,38.075-91.922c0-34.724-13.521-67.369-38.075-91.922    C496.366,312.522,463.721,299,428.997,299L428.997,299z"
   id="path2" />
	</g>
	<g
   id="g8">
		<path
   fill="#FFFFFF"
   d="M428.997,235c107.142,0,193.997,86.855,193.997,193.997c0,107.142-86.855,193.997-193.997,193.997    S235,536.139,235,428.997C235,321.855,321.855,235,428.997,235 M428.997,215c-28.881,0-56.908,5.661-83.304,16.825    c-25.485,10.779-48.368,26.207-68.016,45.853c-19.646,19.647-35.074,42.53-45.853,68.015C220.661,372.089,215,400.116,215,428.997    s5.661,56.908,16.825,83.304c10.779,25.484,26.207,48.368,45.853,68.016c19.647,19.646,42.53,35.073,68.015,45.854    c26.396,11.164,54.423,16.825,83.304,16.825s56.908-5.661,83.304-16.825c25.484-10.779,48.368-26.206,68.016-45.854    c19.646-19.646,35.073-42.53,45.854-68.016c11.164-26.396,16.825-54.423,16.825-83.304s-5.661-56.908-16.825-83.304    c-10.779-25.485-26.206-48.368-45.854-68.015c-19.646-19.646-42.53-35.074-68.016-45.853C485.905,220.661,457.878,215,428.997,215    L428.997,215z"
   id="path6" />
	</g>
	<g
   id="g12">
		<path
   fill="#FFFFFF"
   d="M428.997,63c202.135,0,365.997,163.862,365.997,365.997c0,202.135-163.862,365.997-365.997,365.997    C226.862,794.994,63,631.132,63,428.997C63,226.862,226.862,63,428.997,63 M428.997,43c-52.101,0-102.653,10.208-150.254,30.342    c-45.966,19.442-87.244,47.271-122.687,82.714c-35.443,35.443-63.272,76.721-82.714,122.687C53.208,326.344,43,376.896,43,428.997    c0,52.101,10.208,102.653,30.342,150.254c19.442,45.967,47.271,87.244,82.714,122.688c35.443,35.442,76.721,63.271,122.687,82.715    c47.601,20.133,98.153,30.342,150.254,30.342s102.653-10.209,150.254-30.342c45.967-19.442,87.244-47.271,122.688-82.715    c35.441-35.442,63.271-76.721,82.714-122.688c20.133-47.601,30.342-98.153,30.342-150.254c0-52.101-10.209-102.653-30.342-150.254    c-19.442-45.966-47.271-87.244-82.714-122.687c-35.443-35.443-76.722-63.272-122.688-82.714C531.65,53.208,481.098,43,428.997,43    L428.997,43z"
   id="path10" />
	</g>
	<g
   id="g16">
		<path
   fill="#FFFFFF"
   d="M428.997,63c202.135,0,365.997,163.862,365.997,365.997c0,202.135-163.862,365.997-365.997,365.997    C226.862,794.994,63,631.132,63,428.997C63,226.862,226.862,63,428.997,63 M428.997,43c-52.101,0-102.653,10.208-150.254,30.342    c-45.966,19.442-87.244,47.271-122.687,82.714c-35.443,35.443-63.272,76.721-82.714,122.687C53.208,326.344,43,376.896,43,428.997    c0,52.101,10.208,102.653,30.342,150.254c19.442,45.967,47.271,87.244,82.714,122.688c35.443,35.442,76.721,63.271,122.687,82.715    c47.601,20.133,98.153,30.342,150.254,30.342s102.653-10.209,150.254-30.342c45.967-19.442,87.244-47.271,122.688-82.715    c35.441-35.442,63.271-76.721,82.714-122.688c20.133-47.601,30.342-98.153,30.342-150.254c0-52.101-10.209-102.653-30.342-150.254    c-19.442-45.966-47.271-87.244-82.714-122.687c-35.443-35.443-76.722-63.272-122.688-82.714C531.65,53.208,481.098,43,428.997,43    L428.997,43z"
   id="path14" />
	</g>
	<path
   fill="#FFFFFF"
   d="M428.997,20c225.883,0,408.997,183.114,408.997,408.997S654.88,837.994,428.997,837.994   S20,654.88,20,428.997S203.114,20,428.997,20 M428.997,0c-57.905,0-114.089,11.345-166.991,33.721   c-51.087,21.608-96.963,52.538-136.355,91.93S55.33,210.92,33.721,262.006C11.345,314.908,0,371.092,0,428.997   s11.345,114.089,33.721,166.991c21.608,51.087,52.538,96.964,91.93,136.354c39.392,39.392,85.269,70.321,136.355,91.931   c52.902,22.375,109.086,33.721,166.991,33.721s114.089-11.346,166.991-33.721c51.087-21.608,96.964-52.538,136.354-91.931   c39.392-39.392,70.321-85.269,91.931-136.354c22.375-52.902,33.721-109.086,33.721-166.991s-11.346-114.089-33.721-166.991   c-21.608-51.087-52.538-96.963-91.931-136.355c-39.392-39.392-85.269-70.321-136.354-91.93C543.086,11.345,486.902,0,428.997,0   L428.997,0z"
   id="path18" />
	<path
   fill="#FFFFFF"
   d="M155.338,679.124l173.254-190.213l-15.626-13.721L142.061,665.586L155.338,679.124z M186.348,710.838   L388.754,541.74l-16.418-14.417L173.572,697.756L186.348,710.838z"
   id="path20" />
	<path
   fill="#FFFFFF"
   d="M702.656,178.87L529.402,369.083l15.625,13.721l170.905-190.396L702.656,178.87z M671.646,147.156   L469.24,316.254l16.418,14.417l198.764-170.433L671.646,147.156z"
   id="path22" />
	
		<rect
   x="387.093"
   y="420.775"
   transform="matrix(-0.7071 -0.7071 0.7071 -0.7071 429.3353 1036.2472)"
   fill="#FFFFFF"
   width="84.379"
   height="16.859"
   id="rect24" />
</g>
</svg>