<?xml version="1.0" standalone="no"?>
<!DOCTYPE svg PUBLIC "-//W3C//DTD SVG 20010904//EN"
 "http://www.w3.org/TR/2001/REC-SVG-20010904/DTD/svg10.dtd">
<svg version="1.0" xmlns="http://www.w3.org/2000/svg"
 width="700.000000pt" height="700.000000pt" viewBox="0 0 700.000000 700.000000"
 preserveAspectRatio="xMidYMid meet">
<metadata>
Created by potrace 1.11, written by Peter Selinger 2001-2013
</metadata>
<g transform="translate(0.000000,700.000000) scale(0.100000,-0.100000)"
fill="#000000" stroke="none">
<path d="M3298 6996 c-1 -2 -41 -6 -88 -9 -488 -34 -1016 -200 -1465 -460
-102 -59 -289 -180 -305 -197 -3 -3 -43 -34 -90 -70 -47 -35 -87 -67 -90 -70
-3 -3 -25 -22 -50 -44 -280 -241 -581 -606 -750 -911 -163 -293 -304 -646
-355 -885 -2 -8 -10 -44 -19 -80 -15 -65 -50 -264 -61 -350 -27 -212 -27 -669
0 -832 2 -13 6 -45 9 -73 3 -27 8 -61 11 -75 3 -14 7 -38 10 -55 15 -109 76
-349 121 -482 99 -292 205 -513 387 -808 32 -51 177 -249 235 -320 141 -171
331 -358 512 -504 442 -356 972 -602 1524 -707 79 -15 91 -17 176 -29 25 -4
56 -8 70 -11 144 -25 694 -25 840 0 14 3 48 7 75 11 28 3 57 8 65 10 8 2 31 6
50 9 287 45 610 150 919 297 625 300 1175 815 1518 1424 39 69 183 360 183
370 0 4 6 21 14 38 32 75 40 99 81 222 67 204 116 421 149 655 29 202 29 668
1 865 -2 17 -6 48 -9 70 -11 84 -38 224 -67 345 -29 120 -123 414 -139 435 -4
6 -13 28 -20 50 -38 119 -199 424 -323 610 -178 268 -441 562 -667 745 -30 25
-57 48 -60 51 -3 3 -57 44 -120 91 -290 213 -612 380 -956 496 -157 54 -408
115 -559 138 -27 4 -54 8 -60 9 -9 2 -63 9 -180 22 -40 5 -512 12 -517 9z
m467 -170 c44 -3 94 -8 110 -11 17 -2 52 -7 79 -10 401 -47 890 -218 1257
-441 322 -194 649 -475 862 -739 202 -251 367 -518 476 -771 24 -55 49 -112
56 -129 41 -92 121 -352 146 -470 7 -33 14 -64 15 -70 19 -71 44 -241 59 -395
11 -122 12 -491 1 -580 -3 -25 -8 -67 -11 -95 -13 -107 -16 -133 -30 -205 -80
-433 -236 -833 -468 -1200 -212 -335 -495 -640 -817 -881 -247 -185 -552 -351
-853 -463 -186 -69 -519 -153 -682 -171 -27 -3 -66 -7 -85 -10 -192 -25 -569
-25 -765 1 -22 2 -55 7 -73 9 -229 30 -635 136 -777 205 -11 5 -49 21 -85 36
-98 40 -286 136 -391 200 -744 449 -1279 1154 -1508 1984 -24 89 -67 286 -75
350 -3 25 -8 59 -11 75 -19 123 -28 258 -29 430 0 144 10 356 18 402 3 12 7
48 11 80 3 32 8 67 10 78 5 19 9 42 20 110 5 25 48 205 59 240 1 6 8 30 15 55
69 249 221 588 371 828 409 651 1045 1152 1770 1396 141 47 375 107 473 121
18 2 41 6 52 9 11 2 49 7 85 11 36 4 74 9 85 11 11 2 60 6 110 10 49 3 91 7
92 8 5 4 355 -2 428 -8z"/>
<path d="M3270 6643 c-66 -5 -293 -34 -300 -38 -3 -1 -25 -6 -50 -9 -67 -9
-271 -60 -385 -96 -276 -89 -540 -217 -791 -386 -191 -128 -293 -213 -474
-394 -245 -244 -416 -479 -574 -784 -178 -346 -302 -771 -334 -1146 -9 -113
-9 -473 1 -581 55 -610 293 -1196 686 -1689 97 -122 349 -374 471 -471 373
-297 773 -495 1230 -609 154 -39 269 -58 470 -80 83 -9 555 -7 595 3 11 2 47
8 80 11 552 63 1112 300 1570 663 99 78 355 325 429 412 411 487 657 1047 737
1681 15 113 19 543 7 670 -48 505 -223 1004 -501 1425 -238 361 -536 660 -897
901 -394 264 -892 449 -1340 499 -36 4 -74 9 -85 12 -25 6 -484 11 -545 6z
m417 -167 c509 -27 1028 -201 1463 -491 151 -101 295 -215 283 -225 -4 -4 -39
-33 -78 -65 -38 -32 -92 -77 -120 -101 -213 -180 -752 -627 -762 -631 -7 -3
-38 11 -70 30 -144 87 -311 156 -473 197 -107 27 -87 24 -255 46 -54 8 -317 8
-350 0 -12 -2 -48 -7 -80 -11 -262 -31 -576 -165 -815 -347 -98 -75 -277 -262
-352 -368 -135 -190 -263 -494 -293 -695 -4 -22 -8 -47 -10 -55 -17 -65 -24
-338 -11 -435 40 -296 118 -528 249 -739 l25 -40 -38 -40 c-52 -57 -142 -157
-230 -256 -41 -46 -79 -88 -85 -95 -45 -49 -241 -268 -265 -295 -15 -17 -136
-152 -196 -218 l-31 -34 -50 64 c-353 450 -572 1017 -618 1603 -8 98 -8 354 0
450 31 389 138 776 307 1110 378 747 1044 1302 1841 1531 137 39 330 80 427
90 36 3 68 8 72 10 3 2 71 7 150 10 78 4 144 8 146 9 1 1 26 1 55 -1 28 -1
103 -5 164 -8z m1943 -887 c39 -39 70 -74 70 -78 0 -7 -16 -26 -140 -161 -43
-47 -88 -96 -100 -110 -12 -13 -57 -63 -100 -110 -43 -47 -87 -95 -97 -106
-10 -11 -103 -114 -208 -228 l-189 -208 -24 29 c-49 57 -119 129 -177 182
l-59 53 29 26 c17 13 55 46 85 72 205 177 655 562 696 597 27 23 67 58 89 77
22 20 44 36 48 36 4 0 39 -32 77 -71z m305 -364 c221 -316 375 -652 464 -1016
131 -535 109 -1117 -63 -1640 -349 -1066 -1289 -1859 -2391 -2019 -44 -6 -90
-13 -102 -15 -141 -23 -516 -22 -693 1 -576 77 -1074 285 -1509 630 l-84 67
24 18 c13 9 35 27 49 39 14 12 45 38 69 58 25 21 63 53 86 72 70 59 130 110
435 365 162 136 300 249 307 252 7 3 38 -11 70 -30 688 -414 1572 -307 2137
259 281 281 464 665 503 1054 10 100 7 326 -7 415 -35 237 -124 489 -236 667
-27 43 -29 51 -11 70 6 7 48 54 91 103 44 50 86 97 95 105 9 9 50 54 91 100
41 47 81 92 90 101 8 9 29 31 45 50 17 19 107 120 201 224 94 105 179 200 190
213 l19 23 34 -38 c18 -21 61 -78 96 -128z m-2125 -174 c58 -13 146 -36 195
-53 89 -29 272 -113 310 -141 19 -15 19 -16 -9 -38 -16 -13 -40 -32 -52 -44
-12 -11 -40 -34 -61 -51 -21 -18 -94 -79 -163 -136 l-124 -105 -72 23 c-252
80 -542 65 -769 -40 -168 -78 -331 -212 -432 -357 -78 -112 -152 -283 -169
-389 -3 -19 -10 -55 -14 -80 -12 -59 -5 -269 10 -345 6 -33 23 -93 37 -134 26
-77 25 -80 -17 -121 -9 -9 -192 -212 -259 -288 -48 -53 -67 -69 -77 -61 -21
17 -105 198 -140 302 -59 171 -77 281 -79 477 -3 176 8 286 41 415 131 508
495 913 991 1100 76 29 248 72 323 81 30 3 57 8 59 10 2 2 85 2 185 0 138 -3
206 -9 286 -25z m710 -342 c19 -17 51 -45 70 -63 41 -38 154 -163 158 -176 3
-7 -170 -205 -237 -271 -9 -8 -38 -41 -65 -72 l-49 -56 -47 62 c-60 79 -138
157 -216 216 l-62 47 165 140 c90 76 180 154 200 172 19 17 38 32 42 32 3 0
22 -14 41 -31z m-879 -323 c348 -66 607 -289 713 -611 39 -120 53 -299 32
-424 -37 -226 -183 -457 -367 -581 -96 -66 -206 -119 -284 -137 -231 -53 -436
-32 -629 63 -353 175 -547 547 -489 939 15 105 34 165 80 259 109 223 313 395
552 466 41 12 97 24 125 27 28 3 52 7 54 8 4 4 186 -4 213 -9z m1268 -168 c74
-152 128 -308 145 -423 4 -22 9 -53 12 -70 25 -145 19 -363 -16 -536 -86 -430
-351 -811 -723 -1038 -159 -97 -373 -179 -537 -206 -19 -3 -46 -8 -60 -10 -71
-14 -275 -20 -387 -10 -42 4 -185 30 -263 49 -90 22 -391 153 -405 176 -3 4
23 32 58 61 34 30 64 56 67 59 3 3 26 22 52 43 26 21 53 43 60 50 7 7 36 30
63 52 28 22 52 42 55 45 3 3 20 17 38 32 30 25 34 26 65 13 97 -40 212 -59
362 -60 145 0 193 6 309 40 241 70 469 245 604 465 62 101 125 274 140 385 9
63 9 276 0 335 -6 39 -45 185 -62 230 -4 9 9 31 32 56 20 22 59 65 86 95 26
30 81 90 121 134 40 44 83 92 96 107 13 15 27 28 31 28 3 0 29 -46 57 -102z
m-2262 -1348 c51 -71 141 -159 245 -239 l37 -28 -116 -99 c-64 -54 -121 -104
-127 -109 -51 -48 -159 -135 -167 -135 -13 0 -232 217 -253 252 -17 25 -16 27
11 55 15 16 64 69 108 118 44 49 105 116 135 148 30 33 62 68 70 78 17 21 11
25 57 -41z m-422 -560 c23 -25 71 -71 106 -103 l64 -59 -30 -26 c-231 -203
-910 -782 -917 -782 -9 0 -148 141 -148 149 0 3 17 24 36 46 37 41 197 215
224 245 8 9 58 63 110 120 52 58 100 110 105 116 6 6 89 97 185 203 l175 192
24 -28 c13 -15 42 -48 66 -73z"/>
<path d="M3262 3746 c-23 -24 -42 -47 -42 -52 0 -5 107 -117 239 -248 l239
-239 46 43 c25 23 46 46 46 50 0 6 -417 428 -467 472 -18 17 -21 16 -61 -26z"/>
</g>
</svg>
